<svg id="svg" version="1.1" xmlns="http://www.w3.org/2000/svg" xmlns:xlink="http://www.w3.org/1999/xlink" width="400" height="400" viewBox="0, 0, 400,400"><g id="svgg"><path id="path0" d="M177.652 84.137 C 177.407 84.432,177.325 84.792,177.470 84.937 C 177.675 85.142,172.007 85.401,169.312 85.309 C 169.044 85.300,168.717 85.632,168.585 86.046 C 168.374 86.713,164.543 87.201,162.300 86.847 C 162.135 86.821,162.021 86.935,162.047 87.100 C 162.224 88.216,161.878 88.400,159.600 88.400 C 157.733 88.400,157.022 88.578,156.400 89.200 C 155.867 89.733,155.067 90.000,154.000 90.000 C 152.667 90.000,152.400 90.133,152.400 90.800 C 152.400 91.502,152.133 91.600,150.220 91.600 C 148.716 91.600,147.937 91.783,147.710 92.189 C 147.372 92.792,146.242 93.118,144.300 93.170 C 143.641 93.188,143.200 93.423,143.200 93.757 C 143.200 94.371,141.401 94.971,140.755 94.572 C 140.530 94.433,140.247 94.698,140.126 95.160 C 139.983 95.706,139.585 96.000,138.986 96.000 C 137.649 96.000,136.800 96.405,136.800 97.043 C 136.800 97.426,136.301 97.600,135.200 97.600 C 134.320 97.600,133.621 97.735,133.647 97.900 C 133.804 98.892,133.472 99.200,132.247 99.200 C 131.230 99.200,130.841 99.399,130.684 100.000 C 130.499 100.710,129.313 101.070,127.900 100.847 C 127.735 100.821,127.600 101.160,127.600 101.600 C 127.600 102.133,127.333 102.400,126.800 102.400 C 126.084 102.400,125.813 102.816,125.953 103.700 C 125.979 103.865,125.280 104.000,124.400 104.000 C 123.067 104.000,122.800 104.133,122.800 104.800 C 122.800 105.415,122.533 105.600,121.649 105.600 C 120.496 105.600,119.376 106.442,119.870 106.937 C 120.015 107.082,119.653 107.200,119.067 107.200 C 118.267 107.200,118.000 107.400,118.000 108.000 C 118.000 108.533,117.733 108.800,117.200 108.800 C 116.760 108.800,116.400 109.052,116.400 109.360 C 116.400 109.678,115.751 110.074,114.900 110.275 C 114.012 110.485,113.400 110.869,113.400 111.215 C 113.400 111.537,113.220 111.803,113.000 111.806 C 112.301 111.817,111.578 112.441,111.817 112.828 C 111.944 113.032,111.689 113.200,111.251 113.200 C 110.805 113.200,110.342 113.553,110.200 114.000 C 110.060 114.440,109.650 114.800,109.287 114.800 C 108.925 114.800,108.262 115.151,107.814 115.581 C 105.595 117.710,104.964 118.186,104.502 118.080 C 104.225 118.017,104.000 118.332,104.000 118.782 C 104.000 119.264,103.738 119.600,103.363 119.600 C 103.012 119.600,102.631 119.960,102.516 120.400 C 102.400 120.843,101.970 121.200,101.553 121.200 C 101.067 121.200,100.800 121.483,100.800 122.000 C 100.800 122.533,100.533 122.800,100.000 122.800 C 99.467 122.800,99.200 123.067,99.200 123.600 C 99.200 124.065,98.933 124.400,98.563 124.400 C 98.212 124.400,97.831 124.760,97.716 125.200 C 97.601 125.640,97.241 126.000,96.916 126.000 C 96.591 126.000,96.231 126.358,96.117 126.796 C 96.003 127.233,95.770 127.505,95.600 127.400 C 95.285 127.205,94.576 127.877,94.334 128.600 C 94.260 128.820,94.061 128.954,93.891 128.897 C 93.721 128.840,93.411 129.245,93.201 129.797 C 92.991 130.349,92.669 130.800,92.485 130.800 C 92.301 130.800,91.732 131.366,91.221 132.057 C 90.710 132.749,90.541 133.185,90.846 133.027 C 91.151 132.870,91.085 132.999,90.700 133.314 C 90.315 133.630,90.000 134.183,90.000 134.544 C 90.000 134.933,89.675 135.200,89.200 135.200 C 88.667 135.200,88.400 135.467,88.400 136.000 C 88.400 136.450,88.133 136.800,87.790 136.800 C 87.455 136.800,87.009 137.251,86.799 137.803 C 86.589 138.355,86.197 138.760,85.927 138.703 C 85.452 138.603,85.390 138.789,85.261 140.700 C 85.219 141.313,84.945 141.600,84.400 141.600 C 83.960 141.600,83.600 141.864,83.600 142.186 C 83.600 142.508,83.240 142.965,82.800 143.200 C 82.276 143.480,82.000 144.038,82.000 144.814 C 82.000 145.733,81.820 146.000,81.200 146.000 C 80.605 146.000,80.400 146.267,80.400 147.043 C 80.400 147.805,80.239 148.024,79.800 147.855 C 79.470 147.729,79.185 147.754,79.167 147.913 C 78.969 149.648,78.643 150.557,77.984 151.216 C 77.553 151.647,77.200 152.259,77.200 152.576 C 77.200 152.893,76.992 153.281,76.738 153.438 C 76.433 153.627,76.386 153.546,76.600 153.200 C 76.816 152.851,76.767 152.773,76.455 152.966 C 76.198 153.125,76.083 153.410,76.200 153.600 C 76.317 153.790,76.238 154.053,76.024 154.185 C 75.810 154.317,75.727 154.666,75.840 154.960 C 75.959 155.270,75.700 155.585,75.223 155.710 C 74.591 155.875,74.400 156.249,74.400 157.316 C 74.400 158.370,74.206 158.757,73.600 158.916 C 73.011 159.070,72.800 159.462,72.800 160.400 C 72.800 161.338,72.589 161.730,72.000 161.884 C 71.376 162.047,71.200 162.430,71.200 163.623 C 71.200 164.464,70.992 165.281,70.738 165.438 C 70.454 165.614,70.385 165.548,70.559 165.266 C 70.741 164.973,70.624 164.893,70.233 165.043 C 69.899 165.171,69.641 165.394,69.660 165.538 C 69.939 167.643,69.525 169.600,68.800 169.600 C 68.119 169.600,68.000 169.867,68.000 171.400 C 68.000 172.390,67.865 173.179,67.700 173.153 C 66.944 173.033,66.490 173.241,66.507 173.700 C 66.574 175.491,66.358 177.691,66.137 177.470 C 65.509 176.843,64.800 178.217,64.800 180.062 C 64.800 181.566,64.634 182.093,64.092 182.313 C 63.347 182.615,63.330 182.697,63.250 186.200 C 63.214 187.782,63.045 188.400,62.647 188.400 C 61.931 188.400,61.612 189.646,61.605 192.471 C 61.601 194.313,61.468 194.767,60.900 194.876 C 60.166 195.017,60.133 195.266,60.041 201.300 C 60.011 203.277,59.856 204.000,59.461 204.000 C 58.731 204.000,58.345 211.383,58.675 219.028 L 58.924 224.797 60.325 225.183 C 61.816 225.595,62.400 225.451,62.400 224.670 C 62.400 224.089,63.685 221.593,65.114 219.400 C 66.415 217.404,71.068 212.893,72.175 212.554 C 72.629 212.416,73.238 212.111,73.529 211.878 C 74.634 210.992,78.660 209.610,80.861 209.361 L 83.153 209.102 83.138 207.169 C 83.118 204.499,84.772 197.175,86.654 191.600 C 86.989 190.610,87.405 189.170,87.579 188.400 C 87.753 187.630,88.188 186.460,88.545 185.800 C 88.903 185.140,89.196 184.374,89.198 184.099 C 89.199 183.823,89.560 182.925,90.000 182.104 C 90.440 181.284,90.800 180.367,90.800 180.068 C 90.800 179.768,91.069 179.046,91.397 178.462 C 91.726 177.878,92.175 176.950,92.396 176.400 C 92.617 175.850,92.979 175.130,93.199 174.800 C 93.420 174.470,93.780 173.750,93.999 173.200 C 94.219 172.650,94.566 171.930,94.772 171.600 C 95.115 171.050,98.841 164.570,99.816 162.828 C 100.044 162.420,100.487 161.777,100.800 161.400 C 101.113 161.023,101.556 160.400,101.784 160.015 C 108.780 148.230,124.981 133.027,139.600 124.527 C 187.370 96.753,247.941 106.453,284.606 147.747 C 288.810 152.483,288.880 152.567,290.600 154.999 C 291.480 156.244,292.474 157.568,292.810 157.941 C 294.207 159.496,296.800 163.856,296.800 164.651 C 296.800 165.145,297.265 165.811,297.900 166.225 C 300.904 168.185,306.400 174.473,306.400 175.951 C 306.400 176.779,308.188 177.163,310.046 176.735 C 312.754 176.111,321.539 176.485,323.000 177.287 C 325.430 178.620,328.774 180.000,329.575 180.000 C 330.793 180.000,330.816 176.202,329.600 175.884 C 328.920 175.706,328.800 175.338,328.800 173.437 C 328.800 171.467,328.705 171.200,328.000 171.200 C 327.271 171.200,326.855 169.385,327.153 167.500 C 327.197 167.218,326.575 167.046,325.900 167.153 C 325.735 167.179,325.600 166.502,325.600 165.649 C 325.600 164.758,325.345 163.886,325.000 163.600 C 324.670 163.326,324.400 162.779,324.400 162.384 C 324.400 161.237,323.960 160.400,323.357 160.400 C 322.984 160.400,322.800 159.925,322.800 158.963 C 322.800 157.862,322.613 157.476,322.000 157.316 C 321.489 157.182,321.200 156.770,321.200 156.177 C 321.200 155.666,321.017 155.134,320.793 154.996 C 320.570 154.858,320.491 154.577,320.617 154.372 C 320.744 154.168,320.567 154.000,320.224 154.000 C 319.867 154.000,319.600 153.658,319.600 153.200 C 319.600 152.667,319.333 152.400,318.800 152.400 C 318.133 152.400,318.000 152.133,318.000 150.800 C 318.000 149.467,317.867 149.200,317.200 149.200 C 316.472 149.200,316.121 148.164,316.353 146.700 C 316.397 146.418,315.775 146.246,315.100 146.353 C 314.935 146.379,314.800 145.939,314.800 145.376 C 314.800 144.813,314.656 144.442,314.481 144.550 C 313.895 144.912,313.205 144.168,313.115 143.077 C 313.063 142.448,312.728 141.904,312.313 141.772 C 311.921 141.648,311.600 141.198,311.600 140.773 C 311.600 140.267,311.324 140.000,310.800 140.000 C 310.267 140.000,310.000 139.733,310.000 139.200 C 310.000 138.667,309.733 138.400,309.200 138.400 C 308.537 138.400,308.400 138.133,308.400 136.847 C 308.400 135.630,308.227 135.248,307.600 135.084 C 307.160 134.969,306.800 134.588,306.800 134.237 C 306.800 133.887,306.530 133.600,306.200 133.600 C 305.870 133.600,305.600 133.313,305.600 132.963 C 305.600 132.612,305.240 132.231,304.800 132.116 C 304.360 132.001,304.000 131.670,304.000 131.380 C 304.000 131.091,303.640 130.740,303.200 130.600 C 302.760 130.460,302.400 129.998,302.400 129.573 C 302.400 129.067,302.124 128.800,301.600 128.800 C 301.067 128.800,300.800 128.533,300.800 128.000 C 300.800 127.560,300.665 127.221,300.500 127.247 C 299.621 127.386,299.200 127.119,299.200 126.424 C 299.200 125.997,299.017 125.534,298.793 125.396 C 298.570 125.258,298.508 124.949,298.655 124.711 C 298.808 124.463,298.739 124.391,298.494 124.542 C 298.257 124.688,297.673 124.311,297.196 123.704 C 296.718 123.097,296.254 122.645,296.164 122.700 C 295.476 123.120,294.400 122.693,294.400 122.000 C 294.400 121.467,294.133 121.200,293.600 121.200 C 293.067 121.200,292.800 120.933,292.800 120.400 C 292.800 119.956,292.533 119.600,292.200 119.600 C 291.870 119.600,291.600 119.313,291.600 118.963 C 291.600 118.612,291.240 118.231,290.800 118.116 C 290.360 118.001,290.000 117.641,290.000 117.316 C 290.000 116.991,289.640 116.631,289.200 116.516 C 288.760 116.401,288.400 116.053,288.400 115.743 C 288.400 115.434,287.949 115.009,287.397 114.799 C 286.845 114.589,286.440 114.189,286.497 113.909 C 286.556 113.619,286.136 113.346,285.522 113.276 C 284.761 113.188,284.511 112.977,284.671 112.559 C 284.796 112.234,284.741 112.004,284.549 112.049 C 283.800 112.225,282.000 111.486,282.000 111.003 C 282.000 110.723,281.640 110.399,281.200 110.284 C 280.760 110.169,280.400 109.788,280.400 109.437 C 280.400 109.070,280.067 108.800,279.614 108.800 C 279.182 108.800,278.635 108.440,278.400 108.000 C 278.120 107.476,277.562 107.200,276.786 107.200 C 275.867 107.200,275.600 107.020,275.600 106.400 C 275.600 105.758,275.333 105.600,274.247 105.600 C 273.230 105.600,272.841 105.401,272.684 104.800 C 272.569 104.360,272.209 104.000,271.884 104.000 C 271.559 104.000,271.199 103.640,271.084 103.200 C 270.924 102.587,270.538 102.400,269.437 102.400 C 268.267 102.400,268.000 102.252,268.000 101.600 C 268.000 101.065,267.733 100.800,267.196 100.800 C 266.754 100.800,266.084 100.440,265.707 100.000 C 265.265 99.484,264.522 99.198,263.611 99.194 C 262.615 99.190,262.368 99.081,262.771 98.827 C 263.191 98.561,262.842 98.320,261.447 97.913 C 260.405 97.609,259.564 97.190,259.577 96.980 C 259.589 96.771,259.435 96.600,259.233 96.600 C 259.032 96.600,258.732 96.465,258.567 96.300 C 258.402 96.135,257.847 96.000,257.333 96.000 C 256.817 96.000,256.445 95.785,256.500 95.518 C 256.555 95.253,256.420 95.014,256.200 94.987 C 254.328 94.757,252.525 94.172,252.162 93.678 C 251.921 93.350,251.221 93.027,250.606 92.962 C 248.995 92.790,248.313 92.464,248.598 92.003 C 248.754 91.751,248.015 91.600,246.624 91.600 C 244.667 91.600,244.400 91.504,244.400 90.800 C 244.400 90.095,244.133 90.000,242.163 90.000 C 240.262 90.000,239.894 89.880,239.716 89.200 C 239.531 88.493,239.170 88.400,236.600 88.400 C 234.030 88.400,233.669 88.307,233.484 87.600 C 233.298 86.889,232.938 86.800,230.237 86.800 C 227.485 86.800,227.200 86.726,227.200 86.014 C 227.200 85.291,226.870 85.219,223.100 85.114 C 219.953 85.026,219.026 84.877,219.110 84.470 C 219.170 84.179,219.048 84.047,218.838 84.177 C 218.627 84.307,218.342 84.230,218.204 84.007 C 217.786 83.331,178.216 83.458,177.652 84.137 M192.112 153.495 C 193.164 153.577,194.784 153.576,195.712 153.492 C 196.640 153.408,195.780 153.341,193.800 153.342 C 191.820 153.343,191.060 153.412,192.112 153.495 M201.091 153.489 C 201.801 153.577,203.061 153.579,203.891 153.492 C 204.721 153.405,204.140 153.333,202.600 153.331 C 201.060 153.329,200.381 153.400,201.091 153.489 M185.600 154.200 C 184.170 154.476,183.450 154.716,184.000 154.732 C 184.550 154.749,186.170 154.523,187.600 154.229 C 189.030 153.936,189.750 153.696,189.200 153.697 C 188.650 153.697,187.030 153.924,185.600 154.200 M207.400 154.176 C 208.500 154.477,210.030 154.718,210.800 154.712 L 212.200 154.700 210.600 154.404 C 209.720 154.241,208.190 154.000,207.200 153.868 L 205.400 153.629 207.400 154.176 M179.000 155.618 C 177.900 156.030,177.277 156.374,177.615 156.383 C 177.954 156.393,179.214 156.046,180.415 155.614 C 181.617 155.182,182.240 154.838,181.800 154.849 C 181.360 154.860,180.100 155.206,179.000 155.618 M214.785 155.614 C 215.986 156.046,217.246 156.394,217.585 156.387 C 218.359 156.371,214.016 154.826,213.200 154.827 C 212.870 154.828,213.583 155.182,214.785 155.614 M174.624 157.013 C 174.196 157.336,173.476 157.621,173.024 157.646 C 172.408 157.681,172.367 157.737,172.861 157.868 C 173.224 157.965,174.212 157.674,175.055 157.222 C 175.898 156.770,176.321 156.406,175.994 156.413 C 175.667 156.420,175.051 156.690,174.624 157.013 M220.104 157.200 C 220.925 157.640,221.816 158.000,222.083 158.000 C 222.350 158.000,221.863 157.640,221.000 157.200 C 220.137 156.760,219.247 156.400,219.021 156.400 C 218.796 156.400,219.284 156.760,220.104 157.200 M169.600 158.848 C 168.830 159.261,168.426 159.599,168.701 159.599 C 168.977 159.600,169.875 159.240,170.696 158.800 C 171.516 158.360,171.921 158.022,171.594 158.049 C 171.267 158.076,170.370 158.436,169.600 158.848 M228.125 160.500 C 228.545 160.885,229.184 161.189,229.544 161.175 C 229.959 161.159,229.840 161.006,229.222 160.759 C 228.683 160.544,228.045 160.240,227.803 160.084 C 227.560 159.928,227.706 160.115,228.125 160.500 M160.800 163.423 C 160.030 163.947,158.525 164.967,157.455 165.688 C 153.853 168.117,147.121 174.288,144.677 177.400 C 143.986 178.280,145.306 177.099,147.610 174.775 C 152.680 169.663,154.164 168.386,158.022 165.816 C 161.730 163.345,163.010 162.390,162.554 162.434 C 162.359 162.453,161.570 162.898,160.800 163.423 M232.366 162.687 C 232.677 162.810,234.297 163.839,235.966 164.973 C 239.472 167.357,240.386 167.912,239.800 167.300 C 238.964 166.429,232.747 162.401,232.285 162.432 C 231.983 162.451,232.013 162.547,232.366 162.687 M243.800 170.658 C 246.104 172.959,250.003 176.370,248.600 174.857 C 247.720 173.908,246.100 172.395,245.000 171.495 C 243.900 170.595,243.360 170.219,243.800 170.658 M141.831 180.900 C 140.827 182.488,141.042 182.306,143.018 179.900 C 143.334 179.515,143.438 179.200,143.249 179.200 C 143.061 179.200,142.422 179.965,141.831 180.900 M139.918 183.500 C 139.134 184.405,135.997 189.838,136.009 190.270 C 136.014 190.451,136.881 189.128,137.935 187.330 C 138.990 185.531,140.088 183.776,140.375 183.430 C 141.093 182.565,140.671 182.630,139.918 183.500 M135.121 191.787 C 134.747 192.287,134.322 193.171,134.176 193.752 C 134.031 194.332,133.751 194.906,133.556 195.027 C 133.360 195.148,133.200 195.427,133.200 195.647 C 133.200 196.492,133.963 195.521,134.421 194.094 C 134.685 193.272,135.177 192.284,135.515 191.898 C 135.852 191.511,136.055 191.124,135.964 191.037 C 135.874 190.950,135.494 191.287,135.121 191.787 M131.697 199.775 C 131.209 200.779,130.880 201.600,130.966 201.600 C 131.279 201.600,132.829 198.687,132.708 198.325 C 132.640 198.119,132.185 198.772,131.697 199.775 " stroke="none" fill="#7cd4a3" fill-rule="evenodd"></path><path id="path1" d="M192.600 108.822 C 166.490 110.071,139.881 120.923,121.000 138.023 C 113.279 145.016,105.197 154.265,101.784 160.015 C 101.556 160.400,101.113 161.023,100.800 161.400 C 100.487 161.777,100.044 162.420,99.816 162.828 C 98.841 164.570,95.115 171.050,94.772 171.600 C 94.566 171.930,94.219 172.650,93.999 173.200 C 93.780 173.750,93.420 174.470,93.199 174.800 C 92.979 175.130,92.617 175.850,92.396 176.400 C 92.175 176.950,91.726 177.878,91.397 178.462 C 91.069 179.046,90.800 179.768,90.800 180.068 C 90.800 180.367,90.440 181.284,90.000 182.104 C 89.560 182.925,89.199 183.823,89.198 184.099 C 89.196 184.374,88.903 185.140,88.545 185.800 C 88.188 186.460,87.753 187.630,87.579 188.400 C 87.405 189.170,86.989 190.610,86.654 191.600 C 84.586 197.725,83.009 205.047,83.156 207.843 C 83.206 208.798,92.814 210.159,93.115 209.255 C 96.065 200.406,109.376 193.611,119.000 196.041 C 119.880 196.264,121.249 196.610,122.042 196.812 C 123.688 197.230,128.193 199.682,129.426 200.830 C 129.880 201.254,130.372 201.600,130.519 201.600 C 130.840 201.600,132.800 197.812,132.800 197.191 C 132.800 196.692,134.233 193.295,134.822 192.400 C 135.039 192.070,135.477 191.234,135.796 190.543 C 140.007 181.406,151.213 169.109,160.000 163.983 C 162.687 162.416,167.005 160.017,167.600 159.762 C 167.930 159.620,168.920 159.178,169.800 158.780 C 170.680 158.383,172.157 157.859,173.083 157.618 C 174.009 157.376,174.874 157.003,175.007 156.789 C 175.139 156.575,175.642 156.392,176.124 156.382 C 176.606 156.373,177.720 156.096,178.600 155.767 C 184.156 153.690,200.416 152.439,206.445 153.623 C 207.630 153.856,209.950 154.297,211.600 154.604 C 215.121 155.257,219.193 156.407,221.287 157.338 C 222.105 157.702,222.977 158.000,223.225 158.000 C 223.474 158.000,224.154 158.251,224.738 158.559 C 225.322 158.866,227.010 159.685,228.488 160.378 C 229.967 161.071,231.283 161.810,231.412 162.019 C 231.541 162.229,231.901 162.400,232.212 162.400 C 232.799 162.400,239.649 166.941,241.526 168.575 C 242.117 169.089,243.715 170.429,245.078 171.551 C 247.559 173.595,251.095 177.473,253.885 181.209 L 255.371 183.200 257.996 183.200 C 261.253 183.200,262.213 182.609,262.506 180.422 C 263.054 176.338,270.967 165.600,273.428 165.600 C 273.683 165.600,274.321 165.263,274.846 164.852 C 275.371 164.441,276.397 163.974,277.127 163.814 C 277.857 163.655,278.937 163.273,279.527 162.965 C 282.241 161.549,293.797 162.872,295.780 164.826 C 298.317 167.326,295.616 161.064,292.810 157.941 C 292.474 157.568,291.480 156.244,290.600 154.999 C 288.880 152.567,288.810 152.483,284.606 147.747 C 261.381 121.589,227.284 107.164,192.600 108.822 " stroke="none" fill="#fbb071" fill-rule="evenodd"></path><path id="path2" d="M279.527 162.965 C 278.937 163.273,277.857 163.655,277.127 163.814 C 276.397 163.974,275.371 164.441,274.846 164.852 C 274.321 165.263,273.674 165.600,273.408 165.600 C 273.142 165.600,272.581 165.982,272.162 166.450 C 271.558 167.123,271.979 167.004,274.200 165.872 C 281.429 162.188,288.484 161.890,294.532 165.015 C 296.093 165.821,297.291 165.819,296.139 165.012 C 292.932 162.766,282.397 161.467,279.527 162.965 M108.200 196.080 C 101.579 198.728,97.132 202.322,94.327 207.289 L 93.000 209.640 90.800 209.427 C 89.590 209.309,87.357 209.092,85.838 208.945 C 83.797 208.747,83.151 208.797,83.362 209.138 C 83.533 209.415,84.756 209.600,86.418 209.600 C 87.942 209.600,90.027 209.824,91.052 210.098 C 92.751 210.553,92.954 210.531,93.357 209.847 C 97.301 203.163,103.988 197.200,107.539 197.200 C 107.988 197.200,108.860 196.756,109.478 196.213 C 110.801 195.048,110.784 195.046,108.200 196.080 M363.200 198.600 C 363.200 198.930,363.492 199.200,363.849 199.200 C 364.380 199.200,364.408 199.091,364.000 198.600 C 363.726 198.270,363.434 198.000,363.351 198.000 C 363.268 198.000,363.200 198.270,363.200 198.600 M246.400 232.151 C 246.400 232.234,246.670 232.526,247.000 232.800 C 247.491 233.208,247.600 233.180,247.600 232.649 C 247.600 232.292,247.330 232.000,247.000 232.000 C 246.670 232.000,246.400 232.068,246.400 232.151 M256.000 235.557 C 256.000 235.754,256.270 236.018,256.600 236.145 C 256.965 236.285,257.200 236.145,257.200 235.787 C 257.200 235.464,256.930 235.200,256.600 235.200 C 256.270 235.200,256.000 235.361,256.000 235.557 M144.400 268.587 C 144.400 268.945,144.635 269.085,145.000 268.945 C 145.330 268.818,145.600 268.554,145.600 268.357 C 145.600 268.161,145.330 268.000,145.000 268.000 C 144.670 268.000,144.400 268.264,144.400 268.587 M136.493 337.600 C 136.012 338.370,135.560 338.400,124.597 338.400 C 113.733 338.400,113.163 338.437,112.400 339.200 C 111.656 339.944,111.067 340.000,103.933 340.000 C 99.717 340.000,96.378 340.111,96.514 340.248 C 97.453 341.187,95.393 341.600,89.773 341.600 C 84.862 341.600,83.811 341.705,83.424 342.234 C 83.052 342.744,82.029 342.883,78.242 342.942 C 74.377 343.002,73.437 343.135,73.042 343.675 C 72.673 344.179,71.723 344.371,69.033 344.487 C 66.296 344.604,65.396 344.791,65.010 345.319 C 64.660 345.798,63.931 346.002,62.556 346.005 C 60.033 346.013,58.800 346.354,58.800 347.047 C 58.800 347.436,58.266 347.600,57.000 347.600 C 55.692 347.600,54.965 347.835,54.341 348.459 C 53.823 348.977,53.011 349.305,52.297 349.285 C 51.444 349.260,51.055 349.468,50.909 350.025 C 50.797 350.455,50.362 350.800,49.933 350.800 C 49.218 350.800,49.165 351.086,49.231 354.600 C 49.293 357.931,49.389 358.400,50.004 358.400 C 50.391 358.400,50.801 358.760,50.916 359.200 C 51.075 359.806,51.462 360.000,52.516 360.000 C 53.570 360.000,53.957 360.194,54.116 360.800 C 54.293 361.477,54.662 361.600,56.516 361.600 C 58.370 361.600,58.739 361.723,58.916 362.400 C 59.099 363.102,59.462 363.200,61.866 363.200 C 64.174 363.200,64.687 363.326,65.107 364.000 C 65.546 364.702,66.040 364.800,69.157 364.800 C 72.370 364.800,72.727 364.876,72.916 365.600 C 73.110 366.344,73.462 366.400,77.901 366.400 C 82.091 366.400,82.761 366.493,83.367 367.163 C 83.982 367.843,84.699 367.932,89.902 367.979 C 95.095 368.025,95.804 368.113,96.263 368.769 C 96.732 369.438,97.486 369.514,104.260 369.573 C 110.793 369.631,111.803 369.725,112.237 370.320 C 112.682 370.928,113.963 371.014,124.267 371.128 C 134.390 371.241,135.890 371.338,136.542 371.928 C 137.701 372.977,259.114 372.964,260.273 371.915 C 260.947 371.305,262.257 371.224,272.115 371.176 C 278.212 371.147,283.200 370.966,283.200 370.774 C 283.200 370.582,283.468 370.528,283.797 370.654 C 284.137 370.785,284.499 370.608,284.639 370.242 C 284.853 369.685,285.872 369.599,292.343 369.594 C 299.592 369.588,301.197 369.365,300.628 368.445 C 300.430 368.126,302.140 368.000,306.680 368.000 C 312.574 368.000,313.042 367.945,313.507 367.200 C 313.962 366.472,314.440 366.400,318.841 366.400 C 323.338 366.400,323.689 366.344,323.884 365.600 C 324.075 364.871,324.430 364.800,327.884 364.800 C 331.338 364.800,331.693 364.729,331.884 364.000 C 332.068 363.296,332.430 363.200,334.884 363.200 C 337.338 363.200,337.700 363.104,337.884 362.400 C 338.061 361.723,338.430 361.600,340.284 361.600 C 342.138 361.600,342.507 361.477,342.684 360.800 C 342.848 360.173,343.230 360.000,344.447 360.000 C 345.733 360.000,346.000 359.863,346.000 359.200 C 346.000 358.667,346.267 358.400,346.800 358.400 C 347.544 358.400,347.600 358.133,347.600 354.600 C 347.600 351.145,347.532 350.800,346.847 350.800 C 346.430 350.800,346.000 350.443,345.884 350.000 C 345.729 349.408,345.338 349.200,344.382 349.200 C 343.670 349.200,342.883 348.920,342.633 348.578 C 342.142 347.907,341.340 347.679,339.300 347.631 C 338.475 347.611,338.000 347.398,338.000 347.047 C 338.000 346.354,336.767 346.013,334.244 346.005 C 332.886 346.002,332.139 345.797,331.801 345.334 C 331.324 344.681,330.263 344.520,325.900 344.436 C 324.564 344.411,324.000 344.235,324.000 343.845 C 324.000 343.206,321.837 342.838,318.200 342.858 C 314.406 342.879,314.092 342.835,313.457 342.200 C 312.977 341.720,311.654 341.600,306.829 341.600 C 301.942 341.600,300.800 341.494,300.800 341.043 C 300.800 340.118,299.837 340.000,292.264 340.000 C 285.497 340.000,284.959 339.946,284.507 339.223 C 284.046 338.484,283.460 338.445,272.511 338.421 C 261.515 338.397,260.970 338.360,260.336 337.598 C 259.286 336.337,137.280 336.339,136.493 337.600 " stroke="none" fill="#ececec" fill-rule="evenodd"></path><path id="path3" d="M279.600 163.652 C 272.946 165.692,264.400 172.354,264.400 175.502 C 264.400 175.672,264.035 176.492,263.590 177.323 C 263.144 178.154,262.669 179.642,262.534 180.628 C 262.399 181.615,262.093 182.543,261.854 182.690 C 261.028 183.201,257.164 183.534,255.984 183.196 C 255.071 182.934,254.800 182.985,254.800 183.420 C 254.800 183.731,254.305 184.089,253.700 184.217 C 252.716 184.424,249.292 186.009,246.919 187.355 C 244.738 188.592,239.200 194.381,239.200 195.424 C 239.200 196.072,236.561 198.800,235.933 198.800 C 235.331 198.800,235.200 199.121,235.200 200.600 C 235.200 201.590,235.038 202.400,234.839 202.400 C 233.400 202.400,233.021 213.556,234.400 215.309 C 234.840 215.869,235.202 216.928,235.205 217.663 C 235.213 219.598,235.612 220.800,236.247 220.800 C 236.571 220.800,236.800 221.216,236.800 221.804 C 236.800 222.356,237.160 223.116,237.600 223.493 C 238.040 223.870,238.400 224.498,238.400 224.889 C 238.400 225.333,238.700 225.600,239.200 225.600 C 239.733 225.600,240.000 225.867,240.000 226.400 C 240.000 226.933,240.267 227.200,240.800 227.200 C 241.333 227.200,241.600 227.467,241.600 228.000 C 241.600 228.440,241.825 228.802,242.100 228.804 C 242.375 228.806,243.230 229.524,244.000 230.400 C 244.962 231.494,245.729 231.993,246.453 231.996 C 247.168 231.999,247.574 232.257,247.716 232.800 C 247.845 233.292,248.262 233.600,248.799 233.600 C 249.280 233.600,250.131 233.960,250.691 234.400 C 251.484 235.024,252.314 235.200,254.454 235.200 C 256.530 235.200,257.200 235.335,257.200 235.755 C 257.200 236.478,259.150 236.811,262.350 236.635 C 264.577 236.512,264.924 236.590,265.096 237.247 C 265.205 237.661,265.514 238.000,265.785 238.000 C 266.055 238.000,266.602 238.360,267.000 238.800 C 267.398 239.240,267.959 239.600,268.246 239.600 C 268.534 239.600,269.115 239.971,269.538 240.425 C 270.735 241.710,273.057 242.800,274.599 242.800 C 275.530 242.800,276.000 242.987,276.000 243.357 C 276.000 244.288,276.966 244.400,285.033 244.400 C 292.533 244.400,292.800 244.373,292.800 243.600 C 292.800 242.932,293.081 242.793,294.500 242.756 C 297.352 242.681,298.166 242.840,299.026 243.636 C 299.480 244.056,300.065 244.400,300.326 244.400 C 300.587 244.400,300.800 244.760,300.800 245.200 C 300.800 245.733,301.067 246.000,301.600 246.000 C 302.040 246.000,302.760 246.360,303.200 246.800 C 303.729 247.329,304.533 247.600,305.573 247.600 C 306.795 247.600,307.203 247.779,307.400 248.400 C 307.848 249.811,324.000 249.575,324.000 248.157 C 324.000 247.774,324.499 247.600,325.600 247.600 C 326.933 247.600,327.200 247.467,327.200 246.800 C 327.200 246.148,327.467 246.000,328.637 246.000 C 329.738 246.000,330.124 245.813,330.284 245.200 C 330.400 244.757,330.830 244.400,331.247 244.400 C 331.733 244.400,332.000 244.117,332.000 243.600 C 332.000 243.067,332.267 242.800,332.800 242.800 C 333.333 242.800,333.600 242.533,333.600 242.000 C 333.600 241.560,333.735 241.221,333.900 241.247 C 334.725 241.378,335.200 241.141,335.200 240.600 C 335.200 239.711,337.067 239.851,338.462 240.844 C 340.014 241.950,350.572 241.874,351.863 240.748 C 352.268 240.394,353.404 240.003,354.386 239.879 C 355.368 239.755,356.359 239.397,356.588 239.085 C 356.816 238.772,357.384 238.396,357.849 238.248 C 358.314 238.100,359.016 237.624,359.409 237.190 C 359.802 236.755,360.372 236.400,360.675 236.400 C 360.977 236.400,361.329 236.130,361.455 235.800 C 361.582 235.470,361.941 235.200,362.253 235.200 C 362.565 235.200,362.991 234.750,363.200 234.200 C 363.409 233.650,363.855 233.200,364.190 233.200 C 364.526 233.200,364.800 232.874,364.800 232.475 C 364.800 232.077,365.160 231.364,365.600 230.892 C 366.040 230.420,366.400 229.756,366.400 229.417 C 366.400 229.078,366.662 228.800,366.982 228.800 C 367.338 228.800,367.673 228.217,367.844 227.300 C 367.999 226.475,368.412 225.590,368.762 225.333 C 369.893 224.505,369.955 207.618,368.829 207.323 C 368.177 207.153,368.000 206.788,368.000 205.615 C 368.000 204.632,367.727 203.877,367.200 203.400 C 366.760 203.002,366.400 202.327,366.400 201.901 C 366.400 201.462,366.053 201.034,365.600 200.916 C 365.157 200.800,364.800 200.370,364.800 199.953 C 364.800 199.467,364.517 199.200,364.000 199.200 C 363.560 199.200,363.194 198.975,363.187 198.700 C 363.168 197.941,361.322 196.000,360.619 196.000 C 360.279 196.000,360.000 195.724,360.000 195.387 C 360.000 195.051,359.685 194.656,359.300 194.510 C 358.915 194.364,358.362 194.010,358.071 193.722 C 357.603 193.260,356.339 193.024,355.808 193.300 C 355.702 193.355,355.332 192.995,354.985 192.500 C 354.436 191.716,354.002 191.600,351.620 191.600 C 349.618 191.600,348.827 191.447,348.666 191.028 C 348.184 189.771,341.600 189.778,341.600 191.035 C 341.600 193.055,338.675 190.989,338.238 188.661 C 338.072 187.775,337.735 187.200,337.382 187.200 C 337.058 187.200,336.800 186.829,336.800 186.363 C 336.800 185.875,336.481 185.442,336.038 185.326 C 335.552 185.199,335.182 184.632,335.019 183.763 C 334.879 183.013,334.568 182.400,334.328 182.400 C 334.088 182.400,333.470 181.995,332.956 181.500 C 331.140 179.754,330.400 179.204,330.400 179.600 C 330.400 180.558,327.058 179.514,323.000 177.287 C 321.539 176.485,312.754 176.111,310.046 176.735 C 308.188 177.163,306.400 176.779,306.400 175.951 C 306.400 174.148,298.968 166.222,296.844 165.760 C 296.270 165.635,295.260 165.287,294.600 164.987 C 289.704 162.756,284.137 162.261,279.600 163.652 M109.256 196.433 C 108.736 196.855,107.954 197.200,107.517 197.200 C 103.990 197.200,97.284 203.188,93.362 209.840 C 92.962 210.518,92.751 210.539,90.962 210.087 C 85.319 208.659,76.511 209.546,73.600 211.834 C 73.270 212.093,72.629 212.418,72.175 212.556 C 71.069 212.892,66.416 217.402,65.114 219.400 C 63.685 221.593,62.400 224.089,62.400 224.670 C 62.400 225.935,59.569 225.404,57.857 223.818 C 56.546 222.603,51.861 222.804,52.626 224.042 C 52.749 224.241,51.460 224.401,49.724 224.403 C 47.279 224.405,46.339 224.578,45.400 225.200 C 44.740 225.637,43.705 225.996,43.100 225.997 C 42.495 225.999,42.000 226.184,42.000 226.409 C 42.000 226.633,41.550 227.022,41.000 227.273 C 40.450 227.523,40.000 227.986,40.000 228.302 C 40.000 228.617,39.640 228.969,39.200 229.084 C 38.760 229.199,38.400 229.521,38.400 229.800 C 38.400 230.079,38.040 230.401,37.600 230.516 C 37.160 230.631,36.800 231.012,36.800 231.363 C 36.800 231.733,36.465 232.000,36.000 232.000 C 35.503 232.000,35.200 232.267,35.200 232.704 C 35.200 233.091,34.865 233.617,34.456 233.872 C 34.047 234.127,33.602 234.891,33.466 235.568 C 33.320 236.298,32.971 236.800,32.610 236.800 C 32.172 236.800,32.000 237.223,32.000 238.304 C 32.000 239.374,31.770 239.951,31.200 240.307 C 29.732 241.224,30.124 258.400,31.613 258.400 C 31.770 258.400,32.013 259.120,32.154 260.000 C 32.319 261.035,32.620 261.600,33.005 261.600 C 33.368 261.600,33.600 261.978,33.600 262.568 C 33.600 263.162,34.219 264.162,35.200 265.153 C 36.080 266.042,36.800 266.956,36.800 267.184 C 36.800 267.413,36.965 267.600,37.166 267.600 C 37.367 267.600,38.197 268.246,39.010 269.036 C 39.824 269.826,41.054 270.668,41.745 270.907 C 42.435 271.145,43.195 271.602,43.433 271.922 C 43.671 272.243,44.793 272.594,45.925 272.702 C 47.058 272.811,47.893 273.049,47.781 273.230 C 47.322 273.973,49.277 274.321,54.225 274.375 C 60.274 274.443,62.800 274.140,62.800 273.349 C 62.800 273.030,63.219 272.800,63.800 272.800 C 64.401 272.800,64.800 273.028,64.800 273.373 C 64.800 273.688,65.143 274.055,65.563 274.188 C 65.983 274.321,66.427 274.694,66.550 275.015 C 66.674 275.337,67.051 275.600,67.387 275.600 C 67.733 275.600,68.000 275.948,68.000 276.400 C 68.000 276.933,68.267 277.200,68.800 277.200 C 69.333 277.200,69.600 277.467,69.600 278.000 C 69.600 278.667,69.867 278.800,71.200 278.800 C 72.533 278.800,72.800 278.933,72.800 279.600 C 72.800 280.263,73.067 280.400,74.353 280.400 C 75.570 280.400,75.952 280.573,76.116 281.200 C 76.317 281.967,76.662 282.000,84.563 282.000 C 92.267 282.000,92.852 281.948,93.600 281.200 C 94.043 280.757,94.933 280.400,95.597 280.400 C 96.360 280.400,96.974 280.110,97.293 279.600 C 97.568 279.160,98.109 278.800,98.496 278.800 C 98.933 278.800,99.200 278.497,99.200 278.000 C 99.200 277.434,99.467 277.200,100.112 277.200 C 100.613 277.200,101.283 276.840,101.600 276.400 C 102.311 275.414,106.000 275.211,106.000 276.157 C 106.000 277.579,123.913 277.817,124.284 276.400 C 124.472 275.681,126.318 275.271,128.100 275.553 C 128.265 275.579,128.400 275.330,128.400 275.000 C 128.400 274.670,128.657 274.400,128.971 274.400 C 129.286 274.400,129.784 274.158,130.080 273.863 C 130.375 273.568,131.063 273.093,131.608 272.808 C 132.598 272.290,132.942 272.023,134.766 270.352 C 135.626 269.565,136.131 269.474,139.366 269.522 C 143.445 269.583,144.400 269.403,144.400 268.573 C 144.400 268.149,144.946 267.999,146.500 267.995 C 149.161 267.988,150.400 267.657,150.400 266.953 C 150.400 266.630,150.815 266.400,151.400 266.400 C 151.950 266.400,152.760 266.040,153.200 265.600 C 153.640 265.160,154.258 264.800,154.573 264.800 C 154.888 264.800,155.260 264.440,155.400 264.000 C 155.540 263.560,155.929 263.200,156.264 263.200 C 156.600 263.200,156.969 262.840,157.084 262.400 C 157.199 261.960,157.542 261.600,157.847 261.600 C 158.151 261.600,158.400 261.240,158.400 260.800 C 158.400 260.267,158.667 260.000,159.200 260.000 C 159.733 260.000,160.000 259.733,160.000 259.200 C 160.000 258.667,160.267 258.400,160.800 258.400 C 161.254 258.400,161.600 258.133,161.600 257.783 C 161.600 257.444,161.960 256.780,162.400 256.308 C 162.840 255.836,163.200 255.033,163.200 254.525 C 163.200 254.001,163.442 253.600,163.757 253.600 C 164.477 253.600,164.800 252.722,164.800 250.767 C 164.800 249.733,165.072 248.928,165.600 248.400 C 166.974 247.026,166.757 235.600,165.357 235.600 C 164.949 235.600,164.800 235.016,164.800 233.414 C 164.800 231.638,164.650 231.148,164.000 230.800 C 163.468 230.515,163.200 229.962,163.200 229.148 C 163.200 228.262,162.980 227.868,162.400 227.716 C 161.960 227.601,161.600 227.269,161.600 226.978 C 161.600 226.179,159.465 222.827,158.947 222.813 C 158.697 222.806,158.399 222.440,158.284 222.000 C 158.169 221.560,157.788 221.200,157.437 221.200 C 157.087 221.200,156.800 220.949,156.800 220.643 C 156.800 220.031,155.959 219.600,154.767 219.600 C 154.345 219.600,154.000 219.349,154.000 219.043 C 154.000 218.218,153.016 217.988,151.670 218.496 C 150.691 218.866,150.292 218.821,149.411 218.244 C 148.823 217.859,146.154 217.115,143.481 216.593 C 138.244 215.568,137.604 215.181,137.594 213.024 C 137.585 210.921,131.941 201.685,130.626 201.619 C 130.420 201.609,129.880 201.256,129.426 200.835 C 128.972 200.414,127.719 199.604,126.642 199.036 C 125.565 198.467,124.485 197.853,124.242 197.671 C 121.940 195.949,110.967 195.043,109.256 196.433 " stroke="none" fill="#a4dcfb" fill-rule="evenodd"></path><path id="path4" d="M227.200 86.167 C 227.200 86.515,227.485 86.800,227.833 86.800 C 228.540 86.800,228.417 85.939,227.675 85.692 C 227.414 85.605,227.200 85.818,227.200 86.167 M272.684 104.800 C 272.799 105.240,273.170 105.600,273.509 105.600 C 274.026 105.600,274.009 105.473,273.400 104.800 C 273.002 104.360,272.631 104.000,272.575 104.000 C 272.520 104.000,272.569 104.360,272.684 104.800 M193.400 153.608 C 188.281 153.967,181.696 155.034,179.857 155.802 C 179.070 156.131,178.012 156.400,177.507 156.400 C 177.002 156.400,175.916 156.760,175.096 157.200 C 174.275 157.640,173.307 158.000,172.945 158.000 C 172.310 158.000,171.531 158.329,166.800 160.597 C 154.358 166.560,140.677 180.005,136.005 190.863 C 135.783 191.378,135.434 192.070,135.229 192.400 C 134.656 193.323,133.305 196.483,133.007 197.600 C 132.860 198.150,132.365 199.333,131.908 200.230 L 131.076 201.859 132.839 204.030 C 135.089 206.798,137.600 211.574,137.600 213.082 C 137.600 215.175,138.269 215.573,143.510 216.598 C 146.200 217.124,148.800 217.835,149.289 218.177 C 151.842 219.965,154.000 217.691,154.000 213.213 C 154.000 210.733,154.127 210.000,154.557 210.000 C 155.267 210.000,155.600 209.125,155.600 207.264 C 155.600 206.226,155.836 205.645,156.400 205.293 C 156.910 204.974,157.200 204.360,157.200 203.597 C 157.200 202.800,157.400 202.400,157.800 202.400 C 158.233 202.400,158.400 201.956,158.400 200.800 C 158.400 199.467,158.533 199.200,159.200 199.200 C 159.733 199.200,160.000 198.933,160.000 198.400 C 160.000 197.948,160.267 197.600,160.613 197.600 C 161.249 197.600,162.052 196.047,161.713 195.473 C 161.606 195.293,161.898 195.047,162.360 194.926 C 162.917 194.781,163.200 194.386,163.200 193.753 C 163.200 193.067,163.424 192.800,164.000 192.800 C 164.440 192.800,164.800 192.551,164.800 192.247 C 164.800 191.942,165.160 191.599,165.600 191.484 C 166.040 191.369,166.400 191.009,166.400 190.684 C 166.400 190.359,166.760 189.999,167.200 189.884 C 167.640 189.769,168.000 189.388,168.000 189.037 C 168.000 188.667,168.335 188.400,168.800 188.400 C 169.240 188.400,169.929 188.071,170.331 187.669 C 170.732 187.268,171.362 186.823,171.731 186.682 C 172.099 186.541,172.400 186.235,172.400 186.003 C 172.400 185.770,172.850 185.409,173.400 185.200 C 173.950 184.991,174.400 184.545,174.400 184.210 C 174.400 183.780,174.812 183.600,175.800 183.600 C 176.933 183.600,177.200 183.448,177.200 182.800 C 177.200 182.133,177.467 182.000,178.800 182.000 C 180.133 182.000,180.400 181.867,180.400 181.200 C 180.400 180.495,180.667 180.400,182.637 180.400 C 184.538 180.400,184.906 180.280,185.084 179.600 C 185.269 178.892,185.630 178.800,188.220 178.800 C 190.795 178.800,191.177 178.704,191.400 178.000 C 191.637 177.252,192.005 177.200,197.027 177.200 C 201.867 177.200,202.479 177.279,203.200 178.000 C 203.856 178.656,204.533 178.800,206.973 178.800 C 209.595 178.800,209.976 178.895,210.200 179.600 C 210.413 180.271,210.805 180.400,212.627 180.400 C 214.533 180.400,214.800 180.498,214.800 181.200 C 214.800 181.867,215.067 182.000,216.400 182.000 C 217.733 182.000,218.000 182.133,218.000 182.800 C 218.000 183.422,218.267 183.600,219.200 183.600 C 220.009 183.600,220.400 183.799,220.400 184.210 C 220.400 184.568,220.896 184.919,221.600 185.060 C 222.421 185.224,222.800 185.537,222.800 186.050 C 222.800 186.518,223.083 186.800,223.553 186.800 C 223.970 186.800,224.400 187.157,224.516 187.600 C 224.631 188.040,224.993 188.400,225.320 188.400 C 225.647 188.400,226.012 188.653,226.130 188.962 C 226.249 189.272,226.898 189.646,227.573 189.794 C 228.283 189.950,228.800 190.319,228.800 190.669 C 228.800 191.002,229.143 191.365,229.562 191.474 C 230.048 191.601,230.418 192.168,230.581 193.037 C 230.732 193.846,231.073 194.400,231.418 194.400 C 231.943 194.400,232.177 194.882,232.047 195.700 C 232.021 195.865,232.360 196.000,232.800 196.000 C 233.333 196.000,233.600 196.267,233.600 196.800 C 233.600 197.333,233.867 197.600,234.400 197.600 C 234.844 197.600,235.200 197.867,235.200 198.200 C 235.200 199.326,236.664 198.803,237.933 197.223 C 238.630 196.356,239.200 195.547,239.200 195.424 C 239.200 194.381,244.738 188.592,246.919 187.355 C 249.292 186.009,252.716 184.424,253.700 184.217 C 255.074 183.927,255.080 183.403,253.731 181.393 C 249.795 175.532,238.557 165.762,232.000 162.503 C 231.450 162.230,230.730 161.844,230.400 161.646 C 230.070 161.448,229.350 161.088,228.800 160.846 C 228.250 160.604,227.530 160.246,227.200 160.050 C 225.788 159.214,222.861 158.000,222.255 158.000 C 221.893 158.000,220.925 157.640,220.104 157.200 C 219.284 156.760,218.243 156.400,217.792 156.400 C 217.341 156.400,215.948 156.040,214.696 155.600 C 213.444 155.160,211.866 154.800,211.189 154.800 C 210.512 154.800,208.752 154.543,207.279 154.229 C 203.834 153.494,198.458 153.254,193.400 153.608 M233.628 203.500 C 233.653 204.475,233.695 204.509,234.000 203.800 C 234.469 202.707,234.469 202.400,234.000 202.400 C 233.780 202.400,233.613 202.895,233.628 203.500 M58.400 220.024 C 58.400 222.071,58.254 223.157,58.000 223.000 C 57.367 222.609,57.535 223.448,58.200 224.000 C 58.726 224.437,58.800 224.025,58.800 220.649 C 58.800 218.532,58.710 216.800,58.600 216.800 C 58.490 216.800,58.400 218.251,58.400 220.024 M365.444 231.030 C 365.299 231.407,365.278 231.812,365.397 231.931 C 365.516 232.049,365.826 231.934,366.087 231.673 C 366.422 231.338,366.436 231.076,366.133 230.773 C 365.831 230.471,365.630 230.546,365.444 231.030 M350.600 241.200 C 349.493 241.482,349.477 241.509,350.400 241.547 C 350.950 241.569,351.670 241.413,352.000 241.200 C 352.681 240.760,352.329 240.760,350.600 241.200 M130.456 273.634 C 129.936 274.055,129.677 274.400,129.879 274.400 C 130.415 274.400,131.834 273.300,131.599 273.067 C 131.490 272.958,130.975 273.213,130.456 273.634 " stroke="none" fill="#66a3fa" fill-rule="evenodd"></path></g></svg>